#tb 0: 1/1000
0,          0,          0,        0,      480, 7c5b5df373ebfd31d210ff910e02213b
0,         33,         33,        0,      480, c5b0a5e3eceb792b15818324a43aa2a8
0,         66,         66,        0,      480, 1d9c0eafd4638dfe4fe308174fde2faf
0,        100,        100,        0,      480, 47301d12055944b35008028761cf5e7b
0,        133,        133,        0,      480, 9586ac1087423dcd3b0ff96d43ae475e
0,        166,        166,        0,      480, 26bfe1afea96c7ef2084fffd1fa99a33
0,        200,        200,        0,      480, 0995c8a1935266159a7ef3f95d7f4697
0,        233,        233,        0,      480, 8cfcc0ea67507ab7f3551d8ac50f93a5
0,        266,        266,        0,      480, 658cf3cb887b055d9de7d50db4eb78a9
0,        300,        300,        0,      480, 856bd5189688f7ccfe9995752bc0f1f6
